<?xml version="1.0" encoding="UTF-8"?><svg id="Layer_1" xmlns="http://www.w3.org/2000/svg" viewBox="0 0 916.95 595.28"><defs><style>.cls-1{font-family:MyriadPro-Regular, 'Myriad Pro';font-size:12px;}.cls-2{letter-spacing:0em;}.cls-3{letter-spacing:0em;}.cls-4{letter-spacing:0em;}</style></defs><text class="cls-1" transform="translate(263.78 233.1)"><tspan class="cls-3" x="0" y="0">T</tspan><tspan x="5.88" y="0">his is under ,ai</tspan><tspan class="cls-2" x="76.34" y="0">n</tspan><tspan x="82.95" y="0">tan</tspan><tspan class="cls-4" x="99.37" y="0">c</tspan><tspan x="104.67" y="0">e sk</tspan></text><path d="M503.32,194.15c2.3-2.8,4.59-5.59,6.89-8.39,.97-1.19,1.03-3.1-.51-3.93-5.71-3.06-12.2-.98-16.88,2.98s-7.32,10.11-8.16,16.08c-1.86,13.27,3.91,25.67,11.98,35.83s18.98,18.91,26.89,29.75c3.83,5.25,7.04,11.02,8.58,17.38,1.38,5.68,1.52,12.47-2.15,17.38-2.08,2.78-5.24,4.51-8.28,6.04-3.56,1.8-7.24,3.32-11.03,4.57-7.64,2.51-15.59,3.89-23.64,4.09l2.41,1.84c-1.2-5.13,3.39-9.52,6.97-12.45,4.84-3.97,10.25-7.38,15.42-10.9,10.73-7.31,21.65-14.35,32.74-21.1,22.32-13.58,45.34-26,68.94-37.19,11.67-5.54,23.49-10.78,35.44-15.7,6-2.47,12.04-4.87,18.11-7.18,2.98-1.14,6.2-2.05,9.03-3.54s4.45-3.91,4.59-6.97c.26-5.94-4.95-10.84-9.38-13.98-4.65-3.3-10.14-5.38-15.63-6.81-6.03-1.57-12.25-2.46-18.44-3.16-6.7-.76-13.45-1.14-20.19-1.14-13.55,0-27.12,1.52-40.34,4.5-6.15,1.39-12.38,2.93-18.19,5.43-5.24,2.26-10.17,5.79-12.79,11-5.78,11.5-.59,24.25,6.13,34.03,3.86,5.62,8.07,11.02,12.14,16.49,4.27,5.74,8.54,11.49,12.8,17.23,7.74,10.41,16.2,20.83,21.2,32.92,2.25,5.45,3.75,11.27,3.6,17.2s-2.18,11.53-5.44,16.48c-5.93,9-14.99,15.94-24.52,20.76s-20.09,7.66-30.67,9.02-21.9,1.39-32.76,.24c-1.99-.21-4.77-.52-6.1-2.21-1.45-1.83-.12-4.25,.97-5.88,1.68-2.53,4.05-4.67,6.17-6.83s4.43-4.43,6.7-6.58c9.37-8.88,19.42-17.03,30.06-24.35,8.96-6.16,19.04-12.82,30.25-13.46,4.69-.27,9.42,.73,13.13,3.77,1.04,.85,2.51,1.02,3.54,0,.88-.88,1.05-2.68,0-3.54-9.31-7.62-21.52-5.73-31.84-1.33-5.32,2.27-10.21,5.28-15,8.49-5.5,3.69-10.85,7.6-16.06,11.69-10.15,7.98-19.88,16.72-28.59,26.26-2.02,2.21-4.05,4.85-4.69,7.85s.16,6.13,2.56,8.13c2.24,1.87,5.06,2.51,7.89,2.87s5.47,.54,8.21,.69c21.81,1.24,44.98-1.89,63.94-13.37,9.68-5.86,19.11-14.25,23.94-24.67,2.63-5.67,3.76-11.9,3.21-18.14s-2.58-12.44-5.29-18.2c-5.67-12.05-14.24-22.53-22.13-33.15-4.37-5.88-8.74-11.75-13.1-17.63-4.01-5.4-8.25-10.7-11.81-16.42-3.12-5.01-5.64-10.54-5.86-16.52-.2-5.58,1.6-10.82,5.9-14.5s9.77-5.25,14.98-6.71c6.57-1.84,13.25-3.31,19.98-4.39,13.4-2.15,27.08-2.69,40.62-1.74,6.57,.46,13.15,1.25,19.61,2.53,5.52,1.09,11.06,2.6,16.02,5.31,2.34,1.28,4.52,2.8,6.43,4.66,1.75,1.69,3.61,3.85,3.88,6.38s-2.01,3.45-4.01,4.2c-3.11,1.17-6.22,2.34-9.32,3.54-12.31,4.77-24.5,9.86-36.55,15.25-24.12,10.8-47.66,22.88-70.52,36.15-11.36,6.6-22.55,13.49-33.55,20.67-5.56,3.63-11.08,7.34-16.54,11.12-5.13,3.55-10.69,6.93-15.11,11.38-3.93,3.96-6.8,9.09-5.47,14.8,.24,1.04,1.35,1.86,2.41,1.84,7.27-.18,14.53-1.25,21.52-3.22,6.66-1.88,13.46-4.48,19.35-8.17,2.9-1.81,5.5-4.11,7.22-7.09,1.6-2.76,2.4-5.84,2.73-8.98,.7-6.6-1.15-13.31-3.88-19.26-5.56-12.13-15.54-21.39-24.67-30.82-8.92-9.22-17.66-19.47-19.65-32.58-.96-6.33-.15-13.08,3.31-18.56,2.75-4.37,8.94-8.96,14.22-6.12l-.51-3.93-6.89,8.39c-.86,1.04-1.02,2.52,0,3.54,.88,.88,2.67,1.05,3.54,0h0Z"/></svg>